<mxfile host="app.diagrams.net" modified="2024-03-12T10:24:07.539Z" agent="Mozilla/5.0 (Macintosh; Intel Mac OS X 10_15_7) AppleWebKit/537.36 (KHTML, like Gecko) Chrome/122.0.0.0 Safari/537.36" etag="nblNXQ9PHNm1mLxxvV91" version="24.0.5" type="github">
  <diagram name="第 1 页" id="TNU_vqi3A_sOZuZBlR9T">
    <mxGraphModel dx="830" dy="483" grid="1" gridSize="10" guides="1" tooltips="1" connect="1" arrows="1" fold="1" page="1" pageScale="1" pageWidth="1169" pageHeight="1654" math="0" shadow="0">
      <root>
        <mxCell id="0" />
        <mxCell id="1" parent="0" />
        <mxCell id="9ZEQXVd-UTFJx2npXagM-63" value="" style="rounded=0;whiteSpace=wrap;html=1;" vertex="1" parent="1">
          <mxGeometry x="140" y="650" width="740" height="210" as="geometry" />
        </mxCell>
        <mxCell id="9ZEQXVd-UTFJx2npXagM-64" value="easyAgent" style="rounded=0;whiteSpace=wrap;html=1;" vertex="1" parent="1">
          <mxGeometry x="610" y="670" width="120" height="30" as="geometry" />
        </mxCell>
        <mxCell id="9ZEQXVd-UTFJx2npXagM-68" style="edgeStyle=orthogonalEdgeStyle;rounded=0;orthogonalLoop=1;jettySize=auto;html=1;entryX=0.716;entryY=0.238;entryDx=0;entryDy=0;entryPerimeter=0;" edge="1" parent="1" source="9ZEQXVd-UTFJx2npXagM-65" target="9ZEQXVd-UTFJx2npXagM-63">
          <mxGeometry relative="1" as="geometry" />
        </mxCell>
        <mxCell id="9ZEQXVd-UTFJx2npXagM-65" value="easyMetricSampler" style="rounded=0;whiteSpace=wrap;html=1;" vertex="1" parent="1">
          <mxGeometry x="550" y="750" width="120" height="30" as="geometry" />
        </mxCell>
        <mxCell id="9ZEQXVd-UTFJx2npXagM-69" style="edgeStyle=orthogonalEdgeStyle;rounded=0;orthogonalLoop=1;jettySize=auto;html=1;entryX=0.5;entryY=1;entryDx=0;entryDy=0;" edge="1" parent="1" source="9ZEQXVd-UTFJx2npXagM-66" target="9ZEQXVd-UTFJx2npXagM-64">
          <mxGeometry relative="1" as="geometry">
            <Array as="points">
              <mxPoint x="740" y="730" />
              <mxPoint x="670" y="730" />
            </Array>
          </mxGeometry>
        </mxCell>
        <mxCell id="9ZEQXVd-UTFJx2npXagM-66" value="easyProcessSampler" style="rounded=0;whiteSpace=wrap;html=1;" vertex="1" parent="1">
          <mxGeometry x="680" y="750" width="120" height="30" as="geometry" />
        </mxCell>
        <mxCell id="9ZEQXVd-UTFJx2npXagM-67" value="资产设备1" style="verticalLabelPosition=bottom;html=1;verticalAlign=top;strokeWidth=1;align=center;outlineConnect=0;dashed=0;outlineConnect=0;shape=mxgraph.aws3d.client;aspect=fixed;strokeColor=none;fillColor=#777777;rounded=0;fontFamily=Helvetica;fontSize=12;fontColor=default;" vertex="1" parent="1">
          <mxGeometry x="650" y="780" width="40.38" height="70" as="geometry" />
        </mxCell>
        <mxCell id="9ZEQXVd-UTFJx2npXagM-70" value="metricData" style="rounded=0;whiteSpace=wrap;html=1;" vertex="1" parent="1">
          <mxGeometry x="555" y="797" width="60" height="30" as="geometry" />
        </mxCell>
        <mxCell id="9ZEQXVd-UTFJx2npXagM-71" value="第三方推送" style="rounded=0;whiteSpace=wrap;html=1;" vertex="1" parent="1">
          <mxGeometry x="540" y="820" width="70" height="30" as="geometry" />
        </mxCell>
      </root>
    </mxGraphModel>
  </diagram>
</mxfile>
